<svg width="56" height="28" viewBox="0 0 56 28" fill="none" xmlns="http://www.w3.org/2000/svg">
<path d="M36.6663 3.73333H24.9997V0H36.6663V3.73333ZM39.5429 22.4C38.8062 24.8211 36.1613 28 31.0413 28C25.9181 28 21.7681 24.7725 21.7681 17.4067C21.7681 10.108 25.6431 6.356 30.878 6.356C36.0146 6.356 39.1512 9.6824 39.8362 14.6179C39.9662 15.5624 40.0179 16.8355 39.9946 18.6125H26.6164C26.833 24.6064 32.4213 24.7949 34.263 22.4H39.5429ZM26.733 14.9333H35.008C34.833 12.0456 33.1146 10.7912 30.8797 10.7912C28.4364 10.7912 27.0847 12.2248 26.733 14.9333ZM10.7766 27.9776H0V0.0391998H11.5882C20.7148 0.1904 20.8881 10.2013 16.1215 12.9304C21.8898 15.2824 22.0831 27.9776 10.7766 27.9776ZM4.99995 11.2H10.9732C15.1532 11.2 15.8165 5.6 10.4532 5.6H4.99995V11.2ZM10.6516 16.8H4.99995V22.4299H10.5682C15.6598 22.4299 15.3482 16.8 10.6516 16.8Z" fill="#E7E7E8"/>
<circle cx="4" cy="4" r="4" transform="matrix(1 0 0 -1 48 28)" fill="#8E11C5"/>
</svg>
