<svg width="19" height="12" viewBox="0 0 19 12" fill="none" xmlns="http://www.w3.org/2000/svg">
<path d="M17.4165 1.6H11.8749V0H17.4165V1.6ZM18.7829 9.6C18.433 10.6376 17.1766 12 14.7446 12C12.3111 12 10.3398 10.6168 10.3398 7.46C10.3398 4.332 12.1805 2.724 14.6671 2.724C17.1069 2.724 18.5968 4.1496 18.9222 6.2648C18.984 6.6696 19.0085 7.2152 18.9974 7.9768H12.6428C12.7457 10.5456 15.4001 10.6264 16.2749 9.6H18.7829ZM12.6982 6.4H16.6288C16.5457 5.1624 15.7295 4.6248 14.6678 4.6248C13.5073 4.6248 12.8652 5.2392 12.6982 6.4ZM5.11886 11.9904H0V0.0167999H5.5044C9.83952 0.0815999 9.92185 4.372 7.65771 5.5416C10.3976 6.5496 10.4895 11.9904 5.11886 11.9904ZM2.37497 4.8H5.21228C7.19776 4.8 7.51284 2.4 4.96528 2.4H2.37497V4.8ZM5.05949 7.2H2.37497V9.6128H5.0199C7.43842 9.6128 7.29038 7.2 5.05949 7.2Z" fill="#E7E7E8"/>
</svg>
