<svg width="56" height="41" viewBox="0 0 56 41" fill="none" xmlns="http://www.w3.org/2000/svg">
<path d="M31.6667 0H8.33333C3.73167 0 0 3.82496 0 8.54167V32.4583C0 37.175 3.73167 41 8.33333 41H31.6667C36.27 41 40 37.175 40 32.4583V8.54167C40 3.82496 36.27 0 31.6667 0ZM13.3333 32.4583H8.33333V13.6667H13.3333V32.4583ZM10.8333 11.5005C9.22333 11.5005 7.91667 10.1509 7.91667 8.487C7.91667 6.82308 9.22333 5.4735 10.8333 5.4735C12.4433 5.4735 13.75 6.82308 13.75 8.487C13.75 10.1509 12.445 11.5005 10.8333 11.5005ZM33.3333 32.4583H28.3333V22.8848C28.3333 17.1312 21.6667 17.5668 21.6667 22.8848V32.4583H16.6667V13.6667H21.6667V16.6819C23.9933 12.2641 33.3333 11.9378 33.3333 20.9117V32.4583Z" fill="#E7E7E8"/>
<circle cx="4" cy="4" r="4" transform="matrix(1 0 0 -1 48 41)" fill="#8E11C5"/>
</svg>
