<svg width="15" height="15" viewBox="0 0 15 15" fill="none" xmlns="http://www.w3.org/2000/svg">
<path d="M11.875 0H3.125C1.39938 0 0 1.39938 0 3.125V11.875C0 13.6006 1.39938 15 3.125 15H11.875C13.6013 15 15 13.6006 15 11.875V3.125C15 1.39938 13.6013 0 11.875 0ZM5 11.875H3.125V5H5V11.875ZM4.0625 4.2075C3.45875 4.2075 2.96875 3.71375 2.96875 3.105C2.96875 2.49625 3.45875 2.0025 4.0625 2.0025C4.66625 2.0025 5.15625 2.49625 5.15625 3.105C5.15625 3.71375 4.66687 4.2075 4.0625 4.2075ZM12.5 11.875H10.625V8.3725C10.625 6.2675 8.125 6.42688 8.125 8.3725V11.875H6.25V5H8.125V6.10313C8.9975 4.48688 12.5 4.3675 12.5 7.65062V11.875Z" fill="#E7E7E8"/>
</svg>
