<svg width="67" height="35" viewBox="0 0 67 35" fill="none" xmlns="http://www.w3.org/2000/svg">
<path fill-rule="evenodd" clip-rule="evenodd" d="M50.52 3.25701L29.0157 21.5254C26.9833 23.2515 24.0177 23.2515 21.9853 21.5254L0.480972 3.25701C0.171162 3.94944 0 4.71753 0 5.52637V29.4737C0 32.5259 2.44633 35 5.46429 35H45.5357C48.5537 35 51 32.5259 51 29.4737V5.52637C51 4.71757 50.8288 3.94953 50.519 3.25701H50.52ZM3.00672 0.589641L24.3299 18.7043C25.0077 19.2792 25.9948 19.2792 26.6726 18.7043L47.9958 0.589641C47.2562 0.211768 46.4203 0 45.5369 0H5.46544C4.58197 0 3.74601 0.211758 3.00651 0.589641H3.00672Z" fill="#E7E7E8"/>
<circle cx="4" cy="4" r="4" transform="matrix(1 0 0 -1 59 35)" fill="#8E11C5"/>
</svg>
