<svg width="22" height="15" viewBox="0 0 22 15" fill="none" xmlns="http://www.w3.org/2000/svg">
<path fill-rule="evenodd" clip-rule="evenodd" d="M21.7929 1.39586L12.5166 9.22517C11.6398 9.96493 10.3606 9.96493 9.48384 9.22517L0.207478 1.39586C0.0738348 1.69262 0 2.0218 0 2.36844V12.6316C0 13.9397 1.05528 15 2.35714 15H19.6429C20.9447 15 22 13.9397 22 12.6316V2.36844C22 2.02182 21.9262 1.69266 21.7925 1.39586H21.7929ZM1.29702 0.252703L10.4953 8.01615C10.7876 8.2625 11.2134 8.2625 11.5058 8.01615L20.7041 0.252703C20.385 0.0907578 20.0245 0 19.6434 0H2.35764C1.97653 0 1.61593 0.0907532 1.29693 0.252703H1.29702Z" fill="#E7E7E8"/>
</svg>
